<svg xmlns="http://www.w3.org/2000/svg" xml:space="preserve" width="100" height="70"><path fill="#87C16F" d="M74 31.7 54.6 11.2C53.4 10 52 9.4 50.5 9.4s-3.2.6-4.4 1.7L26.6 31.7c-1 1-1 2.6 0 3.7.5.5 1.1.7 1.7.7s1.4-.3 1.8-.8l1.5-1.6v27c0 .399.3.7.7.7H68c.4 0 .7-.301.7-.7v-27l1.5 1.6c.5.5 1.2.8 1.8.8s1.3-.199 1.7-.7c1-1 1-2.6 0-3.7zM51.4 31c.6-2.3 2.3-4 4.199-4h.7c2.101.5 3.3 3 2.601 5.7-.601 2.3-2.301 4-4.2 4H54c-2.1-.5-3.3-3-2.6-5.7m-9.7-1.8c.5-1.1 1.4-1.9 2.4-2.1h.7c1.9 0 3.7 1.7 4.2 4 .6 2.6-.6 5.2-2.6 5.7h-.7c-1.9 0-3.7-1.7-4.2-4-.3-1.3-.2-2.5.2-3.6m-6.7 12c-.5-1.2-.5-2.5-.2-3.601.3-1.199 1.1-2.1 2.1-2.399.4-.2.7-.2 1.1-.2 1.7 0 3.5 1.4 4.3 3.4 1 2.5 0 5.199-1.9 6-.4.2-.7.2-1.1.2-1.7 0-3.5-1.4-4.3-3.4m27.3 11.4c-1 3.9-3.3 5.3-5.3 5.3h-1.2c-1.1-.2-3.3-.5-5.2-.5h-1c-1.8 0-4 .3-5.2.5h-1.2c-2 0-4.5-1.4-5.3-5.301-.5-2.1.2-3.5.9-4.399 1.3-1.601 3.3-2.101 4.6-2.101.8-4.6 4.6-7.1 6.5-7.1h.5c1.9 0 5.7 2.5 6.5 7.1 1.3 0 3.3.601 4.6 2.101.6.8 1.4 2.2.8 4.4m3.1-11.4c-.8 2.1-2.5 3.4-4.3 3.4-.399 0-.8 0-1.1-.199C59 44 58.3 43.1 57.9 42c-.301-1.1-.2-2.4.199-3.6C58.9 36.3 60.6 35 62.4 35s.8 0 1.1.2c2 .8 2.9 3.4 1.9 6"/></svg>