<svg xmlns="http://www.w3.org/2000/svg" width="100" height="70" data-name="レイヤー_1"><path d="M79.9 30.4 55.5 4.6c-1.5-1.5-3.3-2.3-5.2-2.3s-4 .8-5.5 2.1v.1L20.3 30.3c-1.2 1.3-1.2 3.3.1 4.6.6.6 1.4.9 2.2.9s1.7-.4 2.3-1l1.9-2v34c0 .5.4.9.9.9h44.9c.5 0 .9-.4.9-.9v-34l1.9 2c.6.6 1.5 1 2.3 1s1.6-.3 2.2-.9c1.3-1.2 1.3-3.3.1-4.6Zm-28.4-.9c.7-2.9 2.9-5 5.3-5s.6 0 .9.1c2.6.6 4.1 3.8 3.3 7.2-.7 2.9-2.9 5-5.3 5-.3 0-.6 0-.9-.1-2.6-.6-4.1-3.8-3.3-7.2m-12.2-2.2c.6-1.4 1.7-2.4 3-2.7.3 0 .6-.1.9-.1 2.4 0 4.6 2.1 5.3 5 .8 3.3-.7 6.5-3.3 7.2-.3 0-.6.1-.9.1-2.4 0-4.6-2.1-5.3-5-.4-1.6-.3-3.2.3-4.5m-8.4 15.1c-.6-1.5-.6-3.1-.2-4.5.4-1.5 1.4-2.6 2.7-3 .5-.2.9-.3 1.4-.3 2.2 0 4.4 1.7 5.4 4.3 1.2 3.2.1 6.6-2.4 7.5-.5.2-.9.3-1.4.3-2.2 0-4.4-1.7-5.4-4.3Zm34.3 14.3c-1.2 4.9-4.2 6.7-6.7 6.7h-.6c-.2 0-.5 0-.9-.1-1.4-.2-4.1-.6-6.5-.6h-1.2c-2.3 0-5 .4-6.5.6-.4 0-.7.1-.9.1h-.6c-2.5 0-5.6-1.8-6.7-6.7-.6-2.7.2-4.4 1.1-5.5 1.6-2 4.1-2.7 5.8-2.7 1-5.8 5.8-8.9 8.2-8.9h.6c2.4 0 7.2 3.1 8.2 8.9 1.6 0 4.2.7 5.8 2.7.8 1 1.7 2.8 1 5.5Zm3.9-14.3c-1 2.6-3.1 4.3-5.4 4.3-.5 0-1 0-1.4-.3-1.3-.5-2.2-1.6-2.7-3-.4-1.4-.3-3 .2-4.5 1-2.6 3.1-4.3 5.4-4.3s1 0 1.4.3c2.5 1 3.6 4.3 2.4 7.5Z" style="fill:#fff"/></svg>